<svg width="722" height="581" viewBox="0 0 722 581" fill="none" xmlns="http://www.w3.org/2000/svg">
<g clip-path="url(#clip0_4_39)">
<path d="M338.897 466.298C341.954 500.026 320.364 532.684 291.422 550.444C262.425 568.238 227.337 573.309 193.262 573.672L193.757 571.84L193.773 571.781L193.76 571.722C191.865 562.995 189.969 554.189 190.347 545.31C190.726 536.435 193.641 527.353 200.054 521.271L199.882 521.089L200.054 521.271C205.208 516.383 211.761 514.012 218.83 512.736C224.165 511.773 229.773 511.436 235.282 511.106C237.08 510.998 238.867 510.891 240.631 510.762L240.632 510.762C277.598 507.941 312.384 492.196 338.897 466.298Z" fill="#1ED760" stroke="black" stroke-width="0.5"/>
<path d="M338.379 465.725C326.954 491.623 307.659 513.263 283.234 527.571C278.031 530.744 272.36 533.077 266.43 534.485C260.609 535.669 254.578 535.273 248.962 533.338C243.689 531.639 238.492 529.291 232.898 528.903C230.032 528.747 227.165 529.199 224.486 530.228C221.806 531.258 219.374 532.842 217.35 534.878C212.175 539.818 209.083 546.324 206.28 552.79C203.169 559.971 200.05 567.478 193.969 572.693C193.232 573.325 194.256 574.432 194.991 573.801C205.572 564.727 207.117 549.749 215.529 539.117C219.454 534.156 224.898 530.348 231.427 530.358C237.136 530.367 242.497 532.784 247.821 534.551C253.272 536.519 259.122 537.122 264.86 536.308C270.842 535.207 276.594 533.096 281.868 530.065C293.85 523.432 304.716 514.955 314.065 504.946C324.799 493.583 333.51 480.466 339.821 466.165C340.211 465.28 338.767 464.846 338.379 465.725Z" fill="#138A3D"/>
<path d="M291.37 523.426C294.327 527.198 298.528 529.796 303.224 530.757C307.919 531.717 312.803 530.977 317.003 528.669C317.852 528.199 317.161 526.858 316.312 527.329C312.405 529.486 307.855 530.175 303.484 529.272C299.114 528.368 295.21 525.933 292.477 522.404C291.883 521.638 290.779 522.665 291.37 523.426Z" fill="#138A3D"/>
<path d="M251.521 534.552C252.613 524.815 257.333 515.848 264.743 509.438C265.477 508.803 264.454 507.697 263.72 508.33C256.022 515.016 251.129 524.357 250.015 534.492C249.91 535.458 251.417 535.513 251.521 534.552Z" fill="#138A3D"/>
<path d="M322.921 492.9C321.472 491.679 320.35 490.118 319.655 488.356C318.959 486.594 318.712 484.687 318.936 482.806C319.054 481.842 317.547 481.788 317.43 482.746C317.192 484.825 317.468 486.931 318.232 488.879C318.996 490.828 320.226 492.559 321.813 493.923C321.952 494.064 322.14 494.147 322.337 494.155C322.535 494.163 322.728 494.095 322.878 493.965C323.024 493.829 323.11 493.641 323.118 493.442C323.126 493.242 323.055 493.048 322.921 492.9Z" fill="#138A3D"/>
<path d="M191.837 574.818C191.762 574.876 191.688 574.934 191.613 574.991L190.907 573.229L190.883 573.168L190.833 573.128C190.782 573.086 190.733 573.044 190.68 572.997L190.68 572.997C190.642 572.963 190.602 572.928 190.559 572.892L167.555 522.288C167.967 521.327 168.437 520.392 168.961 519.488L168.963 519.485C171.519 514.957 175.13 510.93 179.125 507.141C181.805 504.598 184.649 502.172 187.46 499.773C188.842 498.594 190.216 497.421 191.558 496.245C197.451 491.083 202.942 485.48 207.985 479.484L207.985 479.484C220.642 464.406 230.39 447.11 236.733 428.473C236.938 427.876 237.137 427.267 237.325 426.663C239.875 418.901 241.79 410.945 243.052 402.873C243.125 402.44 243.191 402.011 243.257 401.584C243.519 401.875 243.777 402.166 244.037 402.463C258.7 419.189 264.586 441.87 263.253 464.394C262.583 475.691 260.14 486.813 256.013 497.352C254.408 501.429 252.597 505.422 250.588 509.316C246.895 516.416 242.628 523.203 237.829 529.609L237.829 529.609L237.824 529.616C237.573 529.978 237.307 530.327 237.041 530.676C236.981 530.756 236.92 530.836 236.859 530.916C226.132 545.071 213.077 557.65 199.193 568.975L199.142 569.016L199.138 569.027C197.326 570.497 195.506 571.952 193.68 573.392C193.623 573.433 193.569 573.477 193.519 573.516C193.467 573.557 193.418 573.595 193.366 573.631L193.352 573.641L193.34 573.652C193.319 573.671 193.287 573.697 193.248 573.728C193.134 573.808 193.015 573.902 192.903 573.99L192.883 574.006C192.882 574.007 192.882 574.008 192.881 574.008C192.785 574.08 192.691 574.155 192.601 574.227L192.6 574.228C192.507 574.301 192.417 574.373 192.326 574.441L192.325 574.442C192.164 574.564 192.001 574.69 191.84 574.816L191.837 574.818ZM199.118 569.078C199.116 569.085 199.117 569.081 199.119 569.076L199.118 569.078Z" fill="#1ED760" stroke="black" stroke-width="0.5"/>
<path d="M242.496 401.434C248.966 428.991 246.588 457.886 235.701 484.015C233.457 489.681 230.334 494.959 226.447 499.653C222.512 504.103 217.458 507.418 211.809 509.255C206.576 511.072 201.013 512.326 196.313 515.384C193.93 516.985 191.913 519.072 190.394 521.508C188.874 523.943 187.887 526.672 187.496 529.516C186.338 536.577 187.786 543.632 189.442 550.483C191.28 558.089 193.31 565.961 191.594 573.787C191.387 574.735 192.87 575.002 193.078 574.055C196.063 560.44 188.278 547.551 188.594 533.997C188.741 527.673 190.795 521.355 196.014 517.432C200.578 514.002 206.313 512.704 211.628 510.909C217.165 509.199 222.199 506.159 226.29 502.054C230.404 497.573 233.725 492.425 236.112 486.83C241.685 474.319 245.257 461.009 246.696 447.388C248.425 431.852 247.483 416.135 243.912 400.917C243.691 399.975 242.276 400.498 242.496 401.434Z" fill="#138A3D"/>
<path d="M239.702 475.808C244.334 477.039 249.252 476.584 253.58 474.524C257.907 472.464 261.361 468.932 263.325 464.56C263.719 463.674 262.361 463.02 261.966 463.907C260.145 467.981 256.927 471.271 252.894 473.181C248.86 475.091 244.277 475.497 239.97 474.325C239.034 474.071 238.771 475.555 239.702 475.808Z" fill="#138A3D"/>
<path d="M214.583 508.682C209.593 500.251 207.963 490.249 210.019 480.67C210.224 479.721 208.741 479.454 208.536 480.401C206.415 490.374 208.132 500.779 213.345 509.541C213.842 510.376 215.078 509.513 214.583 508.682Z" fill="#138A3D"/>
<path d="M246.514 432.439C244.623 432.336 242.787 431.765 241.171 430.776C239.554 429.788 238.209 428.414 237.255 426.778C236.769 425.937 235.533 426.801 236.017 427.637C237.079 429.44 238.567 430.955 240.35 432.051C242.133 433.147 244.157 433.789 246.246 433.922C246.442 433.951 246.641 433.904 246.804 433.792C246.967 433.679 247.08 433.508 247.122 433.315C247.156 433.118 247.112 432.916 246.998 432.752C246.884 432.588 246.711 432.475 246.514 432.439Z" fill="#138A3D"/>
<path d="M102.687 565.457L117.324 565.456L124.287 509L102.685 509.001L102.687 565.457Z" fill="#FFB6B6"/>
<path d="M98.9539 560.678L103.074 560.678L119.158 554.137L127.779 560.677H127.78C132.652 560.677 137.324 562.613 140.769 566.058C144.214 569.502 146.15 574.175 146.15 579.047V579.643L98.9547 579.645L98.9539 560.678Z" fill="#2F2E41"/>
<path d="M170.687 565.457L185.324 565.456L192.287 509L170.685 509.001L170.687 565.457Z" fill="#FFB6B6"/>
<path d="M166.954 560.678L171.074 560.678L187.158 554.137L195.779 560.677H195.78C200.652 560.677 205.324 562.613 208.769 566.058C212.214 569.502 214.15 574.175 214.15 579.047V579.643L166.955 579.645L166.954 560.678Z" fill="#2F2E41"/>
<path d="M91.0371 204.001L110.387 263.5L171.387 261.5L152.643 204.001H91.0371Z" fill="#E6E6E6"/>
<path d="M182.387 256.5L67.3872 259.5L69.3872 315.5C69.3872 315.5 67.3872 330.5 71.3872 334.5C75.3872 338.5 77.3872 338.5 75.3872 345.5C73.3872 352.5 83.9541 363.933 82.6707 365.217C81.3872 366.5 78.3872 373.5 78.3872 373.5L88.3872 430.5C88.3872 430.5 95.3872 529.5 97.3872 531.5C99.3872 533.5 101.387 531.5 99.3872 536.5C97.3872 541.5 95.3872 539.5 97.3872 541.5C99.1588 543.41 100.828 545.413 102.387 547.5H126.564C126.564 547.5 128.387 537.5 128.387 536.5C128.387 535.5 130.387 529.5 130.387 528.5C130.387 527.5 128.619 525.732 128.619 525.732C128.009 523.699 127.596 521.612 127.387 519.5C127.387 517.5 121.387 440.5 121.387 440.5L133.387 340.5L162.387 438.5C162.387 438.5 162.387 524.5 164.387 526.5C166.387 528.5 166.387 527.5 165.387 531.5C164.387 535.5 160.387 534.5 163.387 537.5C166.387 540.5 167.387 535.5 166.387 540.5L165.387 545.5L195.387 545.929C195.387 545.929 199.387 537.5 197.387 534.5C195.387 531.5 195.507 532.319 197.947 527.409C200.387 522.5 201.387 521.5 200.387 520.5C199.387 519.5 199.387 514.181 199.387 514.181L194.387 418.5C194.387 418.5 193.387 317.5 193.387 314.5C193.312 312.956 193.596 311.416 194.218 310.001V305.929L190.387 291.5L182.387 256.5Z" fill="#2F2E41"/>
<path d="M171.887 111L136.887 98L78.8873 102L65.4577 108.267C60.7342 110.471 56.8889 114.2 54.54 118.853C52.1911 123.507 51.4749 128.815 52.5066 133.924L69.8873 220L58.8873 305C58.8873 305 113.387 331.5 130.387 262.5L136.387 236.5C136.387 236.5 138.387 316.5 195.387 299.5C195.387 299.5 194.387 283.5 193.387 277.5C192.387 271.5 190.387 271.5 189.387 268.5C188.387 265.5 186.387 268.5 188.387 262.5C190.387 256.5 172.387 214.5 172.387 214.5L171.887 111Z" fill="#2F2E41"/>
<path d="M125.387 177.5L88.033 101.369L97.387 84.5H127.698L139.705 99.047L125.387 177.5Z" fill="#E6E6E6"/>
<path d="M106.748 260.35C105.119 260.444 103.488 260.18 101.971 259.575C100.455 258.971 99.0893 258.042 97.9709 256.852C96.8525 255.663 96.0084 254.243 95.4981 252.693C94.9878 251.142 94.8238 249.498 95.0175 247.877L59.3357 230.512L77.0768 220L108.241 238.102C110.943 238.608 113.365 240.087 115.048 242.26C116.732 244.432 117.561 247.147 117.377 249.889C117.193 252.632 116.009 255.211 114.05 257.139C112.091 259.067 109.493 260.21 106.748 260.35Z" fill="#FFB8B8"/>
<path d="M33.462 217.939C31.7598 215.861 29.7808 201.376 33.5118 197.977C36.6583 195.111 35.9718 193.778 33.9713 190.777C32.234 188.171 45.5704 140.055 53.2364 117.696C54.2583 114.723 56.37 112.247 59.1454 110.769C61.9209 109.292 65.1535 108.921 68.1912 109.733C71.2289 110.546 73.8456 112.479 75.5133 115.145C77.181 117.811 77.7757 121.01 77.1773 124.097C79.8834 152.722 76.0352 172.244 65.0694 185.464L98.9473 230.346L92.7305 253.142C92.7305 253.142 35.0132 219.833 33.462 217.939Z" fill="#2F2E41"/>
<path d="M112.887 74C130.008 74 143.887 60.1208 143.887 43C143.887 25.8792 130.008 12 112.887 12C95.7664 12 81.8872 25.8792 81.8872 43C81.8872 60.1208 95.7664 74 112.887 74Z" fill="#FFB8B8"/>
<path d="M145.715 20.5113C144.891 13.0973 134.182 5.68323 115.235 0.740536C96.2882 -4.20221 86.4028 17.2162 86.4028 17.2162C73.2222 23.8065 81.048 58.8174 85.167 55.5222C89.286 52.2271 92.993 57.5817 92.993 57.5817L96.0409 30.1499C100.38 33.4749 105.271 36.2901 110.52 35.4533L104.095 29.1275C110.184 31.7769 116.273 34.4264 122.362 37.0758C120.347 34.3021 118.331 31.5284 116.315 28.7548C116.523 28.7481 116.732 28.7389 116.941 28.731C119.678 31.0075 122.812 32.7599 126.185 33.9002C130.181 35.0455 134.968 34.4259 137.706 31.2982C138.443 30.4351 139 29.433 139.344 28.3511C144.315 31.756 145.303 39.0466 145.303 39.0466C145.303 39.0466 146.539 27.9254 145.715 20.5113Z" fill="#2F2E41"/>
<path d="M118.602 242.925C148.228 242.925 172.244 218.909 172.244 189.283C172.244 159.658 148.228 135.642 118.602 135.642C88.9767 135.642 64.9604 159.658 64.9604 189.283C64.9604 218.909 88.9767 242.925 118.602 242.925Z" fill="#EF4444"/>
<path d="M128.306 225.592C129.202 224.227 130.386 223.076 131.776 222.218C133.165 221.361 134.725 220.819 136.347 220.629C137.968 220.44 139.611 220.609 141.161 221.124C142.71 221.639 144.128 222.487 145.314 223.608L180.527 205.311L178.39 225.822L145.279 240.052C143.262 241.92 140.631 242.983 137.883 243.04C135.135 243.096 132.462 242.143 130.369 240.361C128.277 238.578 126.912 236.09 126.531 233.368C126.151 230.646 126.782 227.879 128.306 225.592Z" fill="#FFB8B8"/>
<path d="M150.044 239.142L143.827 216.346L174.705 186.464C163.739 173.244 159.891 153.722 162.597 125.097C161.998 122.009 162.592 118.81 164.26 116.144C165.927 113.477 168.544 111.543 171.583 110.731C174.621 109.918 177.854 110.289 180.629 111.767C183.405 113.246 185.517 115.722 186.538 118.696C194.204 141.055 202.908 168.577 200.834 172.724C200.559 173.275 200.308 173.768 200.083 174.21C198.226 177.862 198.226 177.862 200.034 180.211C200.259 180.504 200.511 180.831 200.787 181.2C201.487 182.133 202.242 183.011 202.971 183.859C205.321 186.591 207.541 189.171 205.803 191.777C203.803 194.778 203.116 196.111 206.263 198.977C209.994 202.376 208.015 216.861 206.312 218.939C204.761 220.832 159.585 235.961 150.545 238.974L150.044 239.142Z" fill="#2F2E41"/>
<path d="M112.286 214.379C111.526 214.376 110.779 214.182 110.115 213.813C109.404 213.43 108.811 212.86 108.4 212.165C107.989 211.47 107.775 210.677 107.782 209.869V172.696C107.782 171.889 107.998 171.098 108.408 170.404C108.819 169.711 109.408 169.14 110.114 168.752C110.821 168.364 111.619 168.172 112.424 168.198C113.23 168.223 114.014 168.465 114.694 168.897L149.957 187.484C150.597 187.89 151.123 188.452 151.488 189.116C151.853 189.78 152.044 190.525 152.044 191.282C152.044 192.04 151.853 192.785 151.488 193.449C151.123 194.113 150.597 194.675 149.957 195.081L114.694 213.668C113.976 214.13 113.14 214.376 112.286 214.379Z" fill="white"/>
</g>
<path d="M712.552 158.78H604.5C602.246 158.777 600.086 157.881 598.492 156.287C596.899 154.694 596.003 152.533 596 150.28V96.5C596.003 94.2464 596.899 92.0859 598.492 90.4924C600.086 88.8989 602.246 88.0025 604.5 88H712.552C714.806 88.0025 716.966 88.8989 718.56 90.4924C720.153 92.0859 721.05 94.2464 721.052 96.5V150.28C721.05 152.533 720.153 154.694 718.56 156.287C716.966 157.881 714.806 158.777 712.552 158.78Z" fill="#EF4444"/>
<path d="M694.801 186.951H622.012C619.872 186.949 617.82 186.097 616.308 184.583C614.795 183.068 613.946 181.016 613.946 178.875C613.946 176.735 614.795 174.683 616.308 173.168C617.82 171.654 619.872 170.802 622.012 170.8H694.801C695.862 170.799 696.913 171.007 697.894 171.412C698.875 171.817 699.766 172.412 700.517 173.162C701.268 173.912 701.863 174.803 702.27 175.783C702.676 176.763 702.885 177.814 702.885 178.875C702.885 179.937 702.676 180.988 702.27 181.968C701.863 182.948 701.268 183.839 700.517 184.589C699.766 185.339 698.875 185.934 697.894 186.339C696.913 186.744 695.862 186.952 694.801 186.951Z" fill="#292D3E"/>
<path d="M712.552 313.135H604.5C602.246 313.133 600.086 312.237 598.492 310.643C596.899 309.049 596.003 306.889 596 304.635V250.856C596.003 248.602 596.899 246.441 598.492 244.848C600.086 243.254 602.246 242.358 604.5 242.356H712.552C714.806 242.358 716.966 243.254 718.56 244.848C720.153 246.441 721.05 248.602 721.052 250.856V304.635C721.05 306.889 720.153 309.049 718.56 310.643C716.966 312.237 714.806 313.133 712.552 313.135Z" fill="#EF4444"/>
<path d="M694.801 339.451H622.012C619.87 339.451 617.816 338.6 616.302 337.086C614.787 335.571 613.937 333.517 613.937 331.376C613.937 329.234 614.787 327.18 616.302 325.665C617.816 324.151 619.87 323.3 622.012 323.3H694.801C696.943 323.3 698.997 324.151 700.511 325.665C702.026 327.18 702.876 329.234 702.876 331.376C702.876 333.517 702.026 335.571 700.511 337.086C698.997 338.6 696.943 339.451 694.801 339.451Z" fill="#292D3E"/>
<path d="M712.552 466.491H604.5C602.246 466.489 600.086 465.592 598.492 463.999C596.899 462.405 596.003 460.245 596 457.991V404.211C596.003 401.958 596.899 399.797 598.492 398.204C600.086 396.61 602.246 395.714 604.5 395.711H712.552C714.806 395.714 716.966 396.61 718.56 398.204C720.153 399.797 721.05 401.958 721.052 404.211V457.991C721.05 460.245 720.153 462.405 718.56 463.999C716.966 465.592 714.806 466.489 712.552 466.491Z" fill="#EF4444"/>
<path d="M694.801 492.951H622.012C619.872 492.949 617.82 492.097 616.308 490.583C614.795 489.068 613.946 487.016 613.946 484.875C613.946 482.735 614.795 480.683 616.308 479.168C617.82 477.654 619.872 476.802 622.012 476.8H694.801C695.862 476.799 696.913 477.007 697.894 477.412C698.875 477.817 699.766 478.412 700.517 479.162C701.268 479.912 701.863 480.803 702.27 481.783C702.676 482.763 702.885 483.814 702.885 484.875C702.885 485.937 702.676 486.988 702.27 487.968C701.863 488.948 701.268 489.839 700.517 490.589C699.766 491.339 698.875 491.934 697.894 492.339C696.913 492.744 695.862 492.952 694.801 492.951Z" fill="#292D3E"/>
<path d="M647.17 141.884C646.557 141.882 645.954 141.725 645.417 141.428C644.843 141.118 644.365 140.658 644.033 140.097C643.701 139.536 643.528 138.895 643.534 138.243V108.23C643.534 107.579 643.708 106.94 644.04 106.38C644.371 105.82 644.847 105.359 645.417 105.045C645.987 104.732 646.632 104.578 647.282 104.598C647.932 104.619 648.565 104.814 649.115 105.163L677.586 120.17C678.102 120.498 678.527 120.951 678.822 121.487C679.116 122.023 679.271 122.625 679.271 123.236C679.271 123.848 679.116 124.45 678.822 124.986C678.527 125.522 678.102 125.975 677.586 126.303L649.115 141.31C648.534 141.683 647.86 141.882 647.17 141.884Z" fill="white"/>
<path d="M646.907 296.884C646.294 296.882 645.691 296.725 645.155 296.428C644.581 296.118 644.102 295.658 643.77 295.097C643.438 294.536 643.266 293.895 643.271 293.243V263.23C643.271 262.579 643.446 261.94 643.777 261.38C644.108 260.82 644.584 260.359 645.154 260.045C645.725 259.732 646.369 259.578 647.019 259.598C647.67 259.619 648.303 259.814 648.852 260.163L677.323 275.17C677.84 275.498 678.265 275.951 678.559 276.487C678.854 277.023 679.008 277.625 679.008 278.237C679.008 278.848 678.854 279.45 678.559 279.986C678.265 280.522 677.84 280.975 677.323 281.303L648.852 296.31C648.272 296.683 647.597 296.882 646.907 296.884Z" fill="white"/>
<path d="M646.645 451.884C646.031 451.882 645.428 451.725 644.892 451.428C644.318 451.118 643.84 450.658 643.508 450.097C643.176 449.536 643.003 448.895 643.008 448.243V418.23C643.008 417.579 643.183 416.94 643.514 416.38C643.846 415.82 644.321 415.359 644.892 415.045C645.462 414.732 646.106 414.578 646.757 414.598C647.407 414.619 648.04 414.814 648.589 415.163L677.061 430.17C677.577 430.498 678.002 430.951 678.296 431.487C678.591 432.023 678.745 432.625 678.745 433.236C678.745 433.848 678.591 434.45 678.296 434.986C678.002 435.522 677.577 435.975 677.061 436.303L648.589 451.31C648.009 451.683 647.334 451.882 646.645 451.884Z" fill="white"/>
<path d="M234.405 362.522C233.955 362.46 233.556 362.159 233.209 361.619C232.756 360.914 232.66 360.125 232.921 359.254L233.944 355.781C234.285 355.034 234.657 354.062 235.06 352.865C235.505 351.641 236.015 350.199 236.59 348.539C236.866 347.599 237.121 346.673 237.355 345.76C237.563 344.806 237.6 343.814 237.467 342.786C237.384 342.018 237.277 341.441 237.147 341.056C237.017 340.671 236.898 340.395 236.791 340.229C236.631 339.98 236.341 339.756 235.92 339.557C235.473 339.317 235.127 339.099 234.884 338.904C234.354 338.717 233.786 338.7 233.181 338.854C232.15 339.166 231.49 339.326 231.203 339.334C230.805 339.355 230.278 339.401 229.62 339.472C228.977 339.475 228.224 339.49 227.361 339.516C226.469 339.679 225.357 339.866 224.026 340.076C222.71 340.218 221.196 340.37 219.482 340.533C219.115 340.418 218.651 340.335 218.091 340.284C217.504 340.192 216.828 340.099 216.063 340.004C215.79 339.944 215.534 339.728 215.294 339.354C215.001 338.898 214.845 338.382 214.827 337.807C214.783 337.19 214.906 336.789 215.197 336.602C215.363 336.495 215.548 336.464 215.752 336.509L215.855 336.531C216.442 336.623 217.356 336.768 218.598 336.967C219.131 336.976 219.707 336.958 220.323 336.914C220.913 336.828 221.544 336.716 222.217 336.576C222.656 336.529 223.204 336.47 223.862 336.399C224.52 336.328 225.301 336.266 226.206 336.212C226.644 336.165 227.185 336.14 227.828 336.137C228.486 336.066 229.281 336.025 230.212 336.013L232.088 335.511C232.542 335.395 233.014 335.355 233.506 335.391C233.972 335.385 234.428 335.502 234.876 335.742C236.604 336.332 237.948 337.375 238.908 338.869C239.762 340.197 240.221 341.778 240.286 343.613C240.369 345.202 240.044 347.434 239.311 350.309C239.029 351.604 238.576 352.951 237.95 354.35C237.41 355.518 237.006 356.394 236.736 356.978C236.507 357.535 236.306 358.134 236.131 358.774C235.997 359.388 235.741 360.403 235.361 361.82C235.216 362.323 234.897 362.558 234.405 362.522ZM242.494 383.185C242.245 383.345 241.945 383.333 241.592 383.149C240.089 382.179 238.738 380.761 237.538 378.893C237.111 378.229 236.546 377.214 235.844 375.847C235.485 375.198 235.159 374.645 234.866 374.189C234.614 373.706 234.395 373.319 234.208 373.028C233.621 372.115 233.076 371.176 232.572 370.209C232.042 369.201 231.519 368.159 231.003 367.083L228.207 361.227C227.627 359.958 226.861 358.31 225.909 356.283C224.931 354.214 223.748 351.778 222.358 348.977C221.617 347.459 220.928 346.113 220.291 344.94C219.666 343.875 219.706 343.117 220.411 342.663C221.2 342.156 221.954 342.463 222.674 343.584C222.858 344.052 223.08 344.672 223.341 345.442C223.616 346.145 223.965 347.006 224.385 348.026L230.444 360.054C231.04 361.254 231.794 362.793 232.706 364.669C233.619 366.546 234.779 368.761 236.187 371.317L238.041 374.612C238.372 375.219 238.651 375.744 238.876 376.186C239.143 376.601 239.343 376.912 239.476 377.12C240.25 378.323 241.158 379.235 242.202 379.854C242.445 380.05 242.619 380.231 242.726 380.397C243.019 380.853 243.12 381.375 243.028 381.962C243.004 382.564 242.827 382.971 242.494 383.185ZM267.566 362.234C267.358 362.368 267.118 362.405 266.845 362.345C264.978 361.903 263.303 360.575 261.822 358.361C261.715 358.195 261.616 357.995 261.524 357.761C261.405 357.485 261.253 357.202 261.066 356.911L260.288 355.564L260.168 355.377C259.688 354.63 259.245 354.534 258.839 355.088C258.382 356.203 257.808 357.773 257.117 359.801C256.441 361.76 255.635 364.155 254.698 366.986C254.374 368.308 253.569 369.382 252.283 370.209C251.536 370.689 250.639 370.708 249.593 370.266C248.561 369.756 247.868 369.088 247.512 368.261C246.943 367.102 246.632 365.659 246.579 363.934C246.499 362.168 246.599 360.315 246.878 358.377C247.172 356.37 247.634 354.489 248.266 352.735C248.912 350.912 249.683 349.419 250.579 348.258C250.928 347.798 251.284 347.394 251.646 347.044C252.007 346.694 252.396 346.386 252.811 346.119C254.595 344.972 255.888 345.021 256.688 346.266C256.955 346.681 256.922 346.996 256.59 347.209C256.465 347.289 256.341 347.369 256.216 347.449C256.065 347.488 255.901 347.505 255.723 347.502C254.576 347.36 253.691 347.489 253.068 347.889C252.446 348.289 251.773 349.249 251.049 350.77C250.468 351.964 250.001 353.291 249.648 354.749C249.295 356.207 249.051 357.743 248.914 359.355C248.792 360.899 248.77 362.233 248.847 363.357C248.897 364.439 249.081 365.317 249.398 365.993C249.463 366.186 249.576 366.407 249.736 366.656C250.162 367.32 250.646 367.479 251.185 367.132C251.849 366.705 252.707 365.303 253.76 362.926C256.251 357.22 257.627 352.7 257.888 349.366C257.956 348.559 257.863 347.593 257.608 346.467C257.442 345.752 257.691 345.182 258.355 344.755C259.103 344.275 259.743 344.45 260.276 345.28C260.703 345.944 260.925 346.974 260.943 348.37C261.894 352.04 262.743 354.456 263.489 355.618C264.719 357.349 266.075 358.501 267.557 359.073C267.762 359.118 267.931 359.244 268.064 359.451C268.304 359.825 268.357 360.318 268.224 360.932C268.117 361.587 267.898 362.021 267.566 362.234ZM276.131 357.609C275.093 358.276 274.081 358.663 273.094 358.769C272.149 358.849 271.462 358.557 271.036 357.893C270.742 357.437 270.803 357.075 271.218 356.808C271.177 356.835 271.602 356.767 272.494 356.604C273.36 356.4 274.187 356.044 274.975 355.537C277.382 353.99 278.177 351.896 277.359 349.255C276.995 348.14 275.11 347.124 271.704 346.204C269.306 345.575 267.481 344.286 266.227 342.335C265.8 341.671 265.597 340.717 265.618 339.472C265.612 338.185 265.811 336.943 266.215 335.746C266.591 334.507 267.153 333.647 267.9 333.167C269.228 332.314 270.188 332.166 270.781 332.723C270.903 332.821 271.004 332.932 271.084 333.057C271.205 333.154 271.306 333.266 271.386 333.39C271.813 334.054 271.777 334.546 271.279 334.866C270.988 335.053 270.693 335.096 270.394 334.995C270.053 334.921 269.696 335.004 269.323 335.244C269.24 335.297 269.136 335.364 269.011 335.444C268.887 335.524 268.81 335.632 268.78 335.768C267.766 337.476 267.582 339.06 268.228 340.521C268.809 341.79 270.741 342.835 274.025 343.657C276.969 344.404 278.961 345.587 280.001 347.206C281.148 348.99 281.155 351.009 280.022 353.261C279.171 355.04 277.874 356.489 276.131 357.609ZM292.739 350.279C291.701 350.946 290.782 350.656 289.982 349.411C286.008 343.228 282.217 336.369 278.607 328.837C278.139 329.021 277.663 329.239 277.18 329.49C276.712 329.674 276.243 329.858 275.775 330.042C274.506 330.622 273.712 330.664 273.392 330.166C273.072 329.668 273.121 329.196 273.539 328.752L273.476 328.792C273.103 329.032 273.152 328.971 273.623 328.61C274.068 328.207 274.658 327.71 275.393 327.12C276.128 326.531 276.724 326.089 277.18 325.796C276.496 324.183 275.887 322.141 275.354 319.669C274.995 318.198 274.661 316.947 274.35 315.916C274.053 314.816 273.815 313.943 273.634 313.297C273.308 312.333 273.581 311.572 274.452 311.012C274.826 310.772 275.091 310.865 275.248 311.292C275.663 312.667 276.222 314.449 276.924 316.636C277.599 318.783 278.46 321.308 279.506 324.213C279.88 323.973 280.336 323.68 280.876 323.333C281.457 322.96 282.134 322.554 282.908 322.115C283.681 321.676 284.351 321.304 284.918 320.999C285.499 320.626 285.955 320.332 286.287 320.119C286.661 319.879 286.941 319.904 287.127 320.195C287.287 320.444 287.295 320.82 287.15 321.324C287.046 321.801 286.807 322.16 286.434 322.4C285.935 322.72 285.242 323.283 284.352 324.089C283.436 324.854 282.304 325.875 280.955 327.152C283.613 332.657 287.756 339.788 293.384 348.545C293.784 349.167 293.569 349.745 292.739 350.279ZM317.669 334.961C316.284 335.909 314.51 335.613 312.347 334.071C310.225 332.503 307.83 329.643 305.163 325.493C303.642 323.128 302.136 320.372 300.642 317.227C299.163 314.014 297.685 310.39 296.206 306.355C292.212 295.669 291.647 289.406 294.51 287.565C295.631 286.845 297.094 287.342 298.899 289.056C300.259 290.351 301.277 291.661 301.953 292.986C304.125 297.279 305.286 304.332 305.436 314.147C305.358 314.665 305.286 315.328 305.217 316.134C305.191 316.914 305.148 317.85 305.088 318.944C305.619 319.952 306.136 320.939 306.639 321.905C307.185 322.845 307.724 323.73 308.257 324.56C309.218 326.054 310.329 327.51 311.592 328.927C313.622 331.082 315.093 331.866 316.006 331.279C316.878 330.719 317.389 329.599 317.541 327.918L317.466 323.832C317.46 323.367 317.623 323.027 317.955 322.814C318.37 322.547 318.711 322.621 318.978 323.036C319.031 323.119 319.063 323.216 319.075 323.325C319.129 323.408 319.161 323.505 319.173 323.614C319.383 324.945 319.542 326.104 319.648 327.091C319.77 328.01 319.819 328.771 319.795 329.372C319.788 332.191 319.08 334.054 317.669 334.961ZM296.449 290.718C294.385 293.804 296.649 302.025 303.239 315.382C303.283 315.178 303.31 314.809 303.319 314.275C303.712 304.757 302.654 298.048 300.147 294.147C299.961 293.856 299.74 293.558 299.485 293.253C299.203 292.906 298.874 292.531 298.498 292.128C297.529 291.167 296.846 290.697 296.449 290.718ZM312.026 303.49C311.404 303.89 310.873 303.703 310.434 302.929L309.537 300.164C309.368 299.627 309.512 299.212 309.968 298.919C310.923 298.305 311.57 298.446 311.911 299.341C312.243 299.949 312.511 300.686 312.715 301.551C312.92 302.417 312.69 303.063 312.026 303.49ZM322.45 324.5C322.076 324.74 321.72 324.734 321.382 324.482C320.923 324.132 320.459 323.638 319.991 323.001C319.523 322.363 319.043 321.616 318.551 320.76C318.02 319.752 317.475 318.402 316.915 316.709C316.397 314.99 315.877 312.949 315.355 310.586C315.255 310.065 315.412 309.67 315.827 309.404C316.615 308.897 317.112 309.076 317.316 309.942C317.497 310.588 317.698 311.221 317.921 311.841C318.143 312.46 318.365 313.08 318.587 313.699C318.993 314.787 319.374 315.745 319.73 316.572C320.085 317.399 320.45 318.103 320.823 318.684C322.13 320.717 322.831 321.762 322.926 321.819C323.317 322.154 323.446 322.628 323.312 323.241C323.152 323.813 322.865 324.233 322.45 324.5ZM330.584 320.064C329.961 320.464 329.373 320.05 328.819 318.823C328.01 317.29 327.071 315.372 326.001 313.069C324.946 310.698 323.74 307.954 322.383 304.839C322.19 304.083 322.322 303.558 322.779 303.265C323.36 302.891 323.824 302.974 324.17 303.514C324.197 303.555 324.25 303.638 324.33 303.763C324.384 303.846 324.43 303.963 324.468 304.114C324.625 304.541 324.809 305.009 325.019 305.519C325.244 305.961 325.517 306.431 325.837 306.929C326.211 307.51 326.631 308.119 327.1 308.756C327.609 309.367 328.187 309.993 328.833 310.633C329.082 310.473 329.526 308.927 330.163 305.996C330.855 303.147 331.654 301.197 332.561 300.145L332.521 300.083C332.619 299.961 332.73 299.86 332.854 299.78C332.979 299.7 333.083 299.634 333.166 299.58C333.954 299.073 334.713 299.114 335.442 299.701L340.034 304.93C342.035 307.221 343.533 308.047 344.529 307.407C344.944 307.14 345.266 306.728 345.494 306.171C345.808 305.383 346.089 304.587 346.335 303.784C346.554 302.939 346.698 302.113 346.766 301.307C346.962 301.064 347.101 300.916 347.184 300.863C347.475 300.676 347.74 300.769 347.98 301.143C348.14 301.392 348.188 301.831 348.122 302.459C348.01 303.47 347.889 304.515 347.762 305.593C347.607 306.631 347.36 307.523 347.019 308.27C346.524 309.233 346.006 309.888 345.467 310.235C344.346 310.955 342.909 310.589 341.154 309.136L336.855 304.774C335.388 303.312 334.417 302.851 333.943 303.391C333.902 303.417 333.839 303.457 333.756 303.511C333.688 303.496 333.613 303.515 333.53 303.568C333.364 303.675 333.183 303.85 332.987 304.093C332.833 304.309 332.719 304.588 332.645 304.929L332.151 307.445C331.718 309.6 331.465 311.58 331.394 313.385C331.323 315.191 331.364 316.806 331.518 318.232C331.559 319.026 331.248 319.637 330.584 320.064ZM354.839 311.161C354.465 311.401 353.964 311.489 353.336 311.423C352.775 311.373 352.396 311.148 352.198 310.747C348.707 304.312 345.498 295.76 342.571 285.091C341.285 280.171 340.112 274.239 339.052 267.297C338.989 266.927 339.104 266.648 339.394 266.461C339.934 266.115 340.39 266.232 340.763 266.813C340.817 266.896 340.849 266.992 340.861 267.102C340.915 267.185 340.947 267.281 340.959 267.391C341.184 270.296 342.536 275.731 345.016 283.696C345.692 285.842 346.309 287.761 346.869 289.454C347.429 291.146 347.932 292.612 348.376 293.851C349.403 288.148 351.19 283.95 353.74 281.256L354.26 280.834C354.705 280.43 355.225 280.419 355.821 280.798C356.432 281.109 356.835 281.554 357.03 282.132C357.507 283.878 357.359 286.202 356.585 289.104C355.988 291.188 355.53 292.801 355.21 293.946C354.89 295.09 354.728 295.751 354.725 295.929C355.475 296.913 357.849 297.733 361.848 298.388C362.12 298.448 362.421 298.459 362.75 298.424C363.053 298.347 363.376 298.257 363.719 298.153C364.063 298.049 364.379 297.993 364.667 297.984C364.969 297.907 365.243 297.877 365.489 297.895C365.83 297.969 366.067 298.11 366.2 298.318C366.44 298.691 366.501 299.151 366.383 299.696C366.305 300.215 366.08 300.594 365.707 300.834C365.582 300.914 365.41 300.966 365.191 300.99C363.14 300.901 361.023 300.619 358.842 300.144C356.633 299.628 354.394 298.927 352.124 298.04C351.721 298.417 351.252 299.011 350.718 299.823C351.536 301.643 352.308 303.346 353.034 304.932C353.802 306.491 354.516 307.967 355.177 309.361C355.615 310.134 355.503 310.735 354.839 311.161ZM350.488 295.221C350.612 295.141 350.682 295.067 350.697 294.999C352.232 294.012 353.476 292.069 354.428 289.17C355.152 286.829 355.3 285.326 354.873 284.662C354.672 284.439 354.405 284.435 354.073 284.648C353.077 285.288 351.91 288.765 350.572 295.079L350.488 295.221ZM369.537 266.53C368.914 266.93 368.384 266.743 367.945 265.969L367.047 263.204C366.879 262.667 367.022 262.252 367.479 261.959C368.433 261.345 369.081 261.486 369.422 262.381C369.754 262.989 370.022 263.726 370.226 264.591C370.431 265.457 370.201 266.103 369.537 266.53ZM379.96 287.54C379.587 287.78 379.231 287.774 378.893 287.522C378.434 287.172 377.97 286.678 377.502 286.041C377.034 285.403 376.553 284.656 376.062 283.8C375.531 282.792 374.986 281.442 374.426 279.749C373.907 278.03 373.387 275.989 372.866 273.626C372.765 273.105 372.923 272.71 373.338 272.444C374.126 271.937 374.623 272.116 374.827 272.982C375.008 273.628 375.209 274.261 375.431 274.881C375.654 275.5 375.876 276.12 376.098 276.739C376.504 277.827 376.885 278.784 377.24 279.612C377.596 280.439 377.96 281.143 378.334 281.724C379.641 283.757 380.342 284.802 380.436 284.859C380.828 285.194 380.957 285.668 380.823 286.281C380.663 286.853 380.375 287.273 379.96 287.54ZM388.095 283.104C387.472 283.504 386.884 283.09 386.33 281.863C385.521 280.33 384.581 278.412 383.512 276.109C382.457 273.738 381.251 270.994 379.894 267.879C379.701 267.123 379.833 266.598 380.289 266.305C380.871 265.931 381.334 266.014 381.681 266.554C381.708 266.595 381.761 266.678 381.841 266.803C381.894 266.886 381.94 267.003 381.979 267.154C382.136 267.581 382.32 268.049 382.53 268.559C382.755 269.001 383.028 269.471 383.348 269.969C383.721 270.55 384.142 271.159 384.61 271.796C385.12 272.407 385.698 273.033 386.344 273.673C386.593 273.513 387.037 271.967 387.674 269.036C388.365 266.187 389.164 264.237 390.072 263.185L390.032 263.122C390.129 263.001 390.241 262.9 390.365 262.82C390.49 262.74 390.593 262.673 390.676 262.62C391.465 262.113 392.224 262.154 392.953 262.741L397.545 267.97C399.546 270.261 401.044 271.087 402.04 270.447C402.455 270.18 402.777 269.768 403.005 269.211C403.319 268.423 403.599 267.627 403.846 266.824C404.065 265.979 404.209 265.153 404.277 264.347C404.473 264.104 404.612 263.956 404.695 263.903C404.986 263.716 405.251 263.809 405.491 264.183C405.651 264.432 405.698 264.871 405.633 265.499C405.52 266.51 405.4 267.555 405.273 268.633C405.118 269.671 404.871 270.563 404.53 271.31C404.034 272.273 403.517 272.928 402.978 273.275C401.857 273.995 400.42 273.629 398.665 272.176L394.366 267.814C392.899 266.352 391.928 265.891 391.454 266.431C391.412 266.457 391.35 266.497 391.267 266.551C391.199 266.536 391.123 266.555 391.04 266.608C390.874 266.715 390.694 266.89 390.498 267.133C390.344 267.349 390.23 267.628 390.155 267.969L389.662 270.485C389.228 272.64 388.976 274.62 388.905 276.425C388.833 278.231 388.875 279.846 389.029 281.272C389.07 282.066 388.759 282.677 388.095 283.104ZM409.539 240.822C408.917 241.222 408.386 241.035 407.947 240.261L407.05 237.496C406.881 236.959 407.025 236.544 407.481 236.251C408.436 235.637 409.083 235.778 409.424 236.673C409.756 237.281 410.024 238.018 410.229 238.883C410.433 239.749 410.203 240.395 409.539 240.822ZM419.963 261.832C419.589 262.072 419.233 262.066 418.896 261.814C418.436 261.464 417.972 260.97 417.504 260.333C417.036 259.696 416.556 258.949 416.064 258.092C415.533 257.084 414.988 255.734 414.428 254.041C413.91 252.322 413.39 250.281 412.868 247.918C412.768 247.397 412.925 247.002 413.34 246.736C414.128 246.229 414.625 246.408 414.829 247.274C415.01 247.92 415.211 248.553 415.434 249.173C415.656 249.792 415.878 250.412 416.1 251.031C416.506 252.119 416.887 253.077 417.243 253.904C417.598 254.731 417.963 255.435 418.336 256.016C419.643 258.049 420.344 259.094 420.439 259.151C420.83 259.486 420.959 259.96 420.825 260.573C420.665 261.146 420.378 261.565 419.963 261.832ZM428.097 257.396C427.474 257.796 426.886 257.382 426.332 256.155C425.523 254.622 424.584 252.704 423.514 250.401C422.459 248.03 421.253 245.286 419.896 242.171C419.703 241.415 419.835 240.89 420.292 240.597C420.873 240.223 421.337 240.306 421.683 240.846C421.71 240.887 421.763 240.97 421.843 241.095C421.897 241.178 421.943 241.295 421.981 241.446C422.138 241.873 422.322 242.341 422.532 242.851C422.758 243.293 423.03 243.763 423.35 244.261C423.724 244.842 424.144 245.451 424.613 246.088C425.122 246.699 425.7 247.325 426.346 247.965C426.595 247.805 427.039 246.259 427.677 243.328C428.368 240.479 429.167 238.529 430.074 237.477L430.034 237.415C430.132 237.293 430.243 237.192 430.367 237.112C430.492 237.032 430.596 236.966 430.679 236.912C431.467 236.405 432.226 236.446 432.955 237.033L437.547 242.262C439.548 244.554 441.046 245.379 442.042 244.739C442.457 244.472 442.779 244.06 443.007 243.503C443.321 242.715 443.602 241.919 443.848 241.116C444.067 240.271 444.211 239.445 444.279 238.639C444.475 238.396 444.614 238.248 444.697 238.195C444.988 238.008 445.253 238.101 445.493 238.475C445.653 238.724 445.701 239.163 445.635 239.791C445.523 240.802 445.402 241.847 445.275 242.926C445.12 243.963 444.873 244.855 444.532 245.602C444.037 246.565 443.519 247.22 442.98 247.567C441.859 248.287 440.422 247.921 438.667 246.468L434.368 242.106C432.901 240.644 431.931 240.183 431.456 240.723C431.415 240.749 431.352 240.789 431.269 240.843C431.201 240.828 431.126 240.847 431.043 240.901C430.877 241.007 430.696 241.182 430.5 241.425C430.346 241.641 430.232 241.92 430.158 242.261L429.664 244.777C429.231 246.932 428.979 248.912 428.907 250.718C428.836 252.523 428.877 254.138 429.031 255.564C429.072 256.358 428.761 256.969 428.097 257.396ZM461.561 270.899C460.856 271.353 460.356 271.351 460.063 270.895C459.929 270.687 459.695 270.368 459.36 269.939C459.025 269.509 458.603 268.988 458.093 268.378C457.679 267.823 457.29 267.311 456.929 266.839C456.594 266.409 456.354 266.036 456.209 265.719C454.561 262.79 452.844 259.114 451.057 254.691C449.297 250.31 447.509 245.155 445.692 239.227C445.375 239.372 445.11 239.278 444.897 238.946C444.556 238.872 444.252 238.628 443.985 238.213C443.612 237.632 443.431 236.985 443.443 236.274C443.47 235.494 443.51 234.736 443.563 233.997L443.488 232.375L442.733 229.693C442.49 228.677 442.204 227.776 441.875 226.99C441.519 226.163 441.176 225.446 440.844 224.838C440.538 224.272 440.656 223.815 441.195 223.468C441.818 223.068 442.289 223.117 442.609 223.615C443.009 224.238 443.347 224.9 443.622 225.603C443.898 226.306 444.145 227.055 444.365 227.853C445.663 223.851 447.662 220.984 450.359 219.25C451.604 218.45 452.892 218.355 454.223 218.966C455.338 219.423 456.215 220.149 456.855 221.145C458.642 223.926 459.433 228.168 459.228 233.871C459.043 239.971 457.602 243.888 454.904 245.621C453.701 246.395 452.645 246.076 451.739 244.665C451.232 243.877 451.248 243.309 451.788 242.962C452.037 242.802 452.496 242.741 453.166 242.78C453.4 242.688 453.621 242.576 453.829 242.442C454.063 242.35 454.31 242.279 454.571 242.229C456.563 240.949 457.552 237.879 457.538 233.021C457.479 228.367 456.65 224.796 455.05 222.305C454.676 221.724 454.067 221.324 453.222 221.105C452.393 220.817 451.708 220.847 451.168 221.193C447.572 223.446 445.635 226.773 445.356 231.174L446.187 234.247C449.2 244.684 453.32 253.97 458.548 262.104L460.646 265.506L462.624 268.721C463.077 269.426 462.723 270.152 461.561 270.899ZM479.914 224.711C479.027 225.339 477.975 225.253 476.757 224.453C476.54 224.298 476.21 224.012 475.765 223.594C475.321 223.176 474.741 222.64 474.027 221.985C473.194 221.054 472.658 220.812 472.418 221.26C472.42 222.724 472.199 224.479 471.754 226.524C471.191 229.114 470.515 230.663 469.726 231.17C468.855 231.73 467.681 231.546 466.205 230.618C464.999 229.927 464.089 229.105 463.475 228.15C461.422 224.954 460.036 221.886 459.319 218.946C459.207 218.314 459.358 217.865 459.773 217.599C460.147 217.359 460.619 217.319 461.191 217.479C461.764 217.639 462.196 217.947 462.49 218.404C462.65 218.653 462.804 219.257 462.952 220.218C463.15 222.26 463.863 224.236 465.09 226.145C466.423 228.22 467.484 229.004 468.273 228.497C468.646 228.257 469.173 227.069 469.852 224.932C471.011 221.079 471.018 217.028 469.871 212.78C469.759 212.149 469.931 211.686 470.387 211.393C471.134 210.913 471.708 210.984 472.108 211.607C472.374 212.022 472.606 212.518 472.801 213.096C473.038 213.648 473.253 214.301 473.446 215.057C473.68 215.786 473.915 216.427 474.152 216.978C474.389 217.529 474.641 218.013 474.908 218.428C475.095 218.718 475.342 219.058 475.65 219.446C475.932 219.793 476.261 220.168 476.637 220.571C477.645 221.683 478.34 222.262 478.722 222.31C478.722 222.31 478.863 222.073 479.145 221.598C479.441 221.056 479.779 220.487 480.159 219.891C480.553 219.227 480.87 218.672 481.11 218.224C481.365 217.708 481.493 217.45 481.493 217.45C481.908 217.184 482.222 217.216 482.436 217.548C482.649 217.88 482.603 218.584 482.297 219.66C482.033 220.71 481.667 221.737 481.199 222.741C480.73 223.746 480.302 224.403 479.914 224.711ZM492.081 222.169C491.044 222.836 490.125 222.547 489.325 221.302C485.351 215.118 481.559 208.26 477.95 200.727C477.481 200.911 477.006 201.129 476.522 201.381C476.054 201.564 475.586 201.748 475.117 201.932C473.849 202.513 473.054 202.554 472.734 202.056C472.414 201.558 472.463 201.087 472.881 200.642L472.819 200.682C472.445 200.922 472.494 200.861 472.966 200.5C473.41 200.097 474 199.6 474.735 199.011C475.471 198.421 476.066 197.979 476.523 197.686C475.838 196.073 475.23 194.031 474.696 191.559C474.338 190.088 474.003 188.837 473.692 187.806C473.396 186.706 473.157 185.833 472.977 185.187C472.651 184.224 472.923 183.462 473.795 182.902C474.169 182.662 474.434 182.755 474.591 183.182C475.006 184.557 475.564 186.339 476.266 188.527C476.942 190.673 477.803 193.198 478.849 196.103C479.222 195.863 479.679 195.57 480.218 195.223C480.799 194.85 481.476 194.444 482.25 194.005C483.024 193.567 483.694 193.195 484.26 192.889C484.841 192.516 485.298 192.223 485.63 192.009C486.003 191.769 486.283 191.794 486.47 192.085C486.63 192.334 486.637 192.71 486.492 193.214C486.388 193.692 486.15 194.05 485.776 194.29C485.278 194.61 484.584 195.173 483.695 195.979C482.779 196.744 481.646 197.765 480.298 199.042C482.956 204.547 487.099 211.678 492.726 220.435C493.126 221.058 492.911 221.635 492.081 222.169ZM512.481 204.045C511.526 204.658 510.729 204.467 510.089 203.471C508.462 200.939 506.204 196.468 503.315 190.056L501.087 193.159C500.589 193.479 500.193 193.411 499.9 192.954C499.713 192.664 499.711 192.342 499.895 191.99C500.278 191.216 500.666 190.497 501.06 189.833C501.47 189.101 501.851 188.417 502.203 187.779C499.024 180.733 496.572 174.773 494.847 169.9C493.164 165 492.188 161.2 491.919 158.499C491.886 157.993 492.015 157.646 492.306 157.459C492.762 157.166 493.151 157.268 493.471 157.766C493.524 157.849 493.557 157.945 493.569 158.055C493.622 158.138 493.654 158.234 493.666 158.344C494.075 162.538 496.832 169.885 501.938 180.385C502.083 180.702 502.215 180.999 502.333 181.274C502.467 181.482 502.6 181.689 502.733 181.897C503.827 183.599 504.909 183.959 505.979 182.978C506.465 182.548 506.923 182.166 507.353 181.831C507.824 181.469 508.268 181.155 508.683 180.889C511.214 179.262 513.627 178.18 515.921 177.644C519.342 176.853 521.719 177.495 523.053 179.57C524.2 181.355 523.18 185.47 519.992 191.917C518.744 194.537 517.556 196.795 516.43 198.692C515.277 200.548 514.231 202.07 513.295 203.258C513.084 203.569 512.813 203.832 512.481 204.045ZM513.086 198.554C514.669 197.185 516.494 194.458 518.561 190.374C520.95 185.788 521.665 182.749 520.705 181.255C519.825 179.885 518.091 179.651 515.503 180.552C513.825 181.043 512.115 181.849 510.372 182.97C510.081 183.156 509.659 183.457 509.105 183.872C508.565 184.219 507.907 184.7 507.13 185.317C506.546 185.868 506.205 186.615 506.107 187.557C506.051 188.473 506.181 189.269 506.498 189.945C506.803 190.511 507.168 191.215 507.592 192.057C507.989 192.858 508.466 193.783 509.023 194.832L510.499 197.402C511.349 198.908 512.212 199.292 513.086 198.554ZM537.392 189.091C536.064 189.945 534.61 190.146 533.03 189.695C531.586 189.274 530.478 188.462 529.704 187.258C528.264 185.017 527.747 181.977 528.154 178.139C528.291 176.526 528.569 174.998 528.991 173.555C529.412 172.112 529.928 170.724 530.538 169.394C530.666 169.136 530.916 168.887 531.29 168.647C532.493 167.873 533.282 167.777 533.655 168.358C533.762 168.524 533.758 168.791 533.642 169.158L533.682 169.221C534.865 169.692 536.074 170.205 537.31 170.759C538.546 171.314 539.577 172.234 540.404 173.521C541.097 174.6 541.514 175.887 541.653 177.381C541.833 178.848 541.767 180.386 541.452 181.996C541.153 183.537 540.65 184.945 539.944 186.219C539.239 187.494 538.388 188.451 537.392 189.091ZM536.214 187.121C537.225 186.413 538.058 185.291 538.713 183.756C539.342 182.179 539.698 180.543 539.781 178.847C539.906 177.125 539.655 175.732 539.03 174.668C538.073 172.996 536.069 171.703 533.019 170.79C532.061 173.223 531.458 175.752 531.209 178.375C530.95 181.532 531.368 183.961 532.461 185.663C533.635 187.489 534.886 187.975 536.214 187.121ZM547.823 179.485C547.491 179.698 547.191 179.597 546.925 179.182C546.631 178.726 546.559 178.157 546.707 177.475C546.808 176.355 546.938 175.098 547.099 173.705C547.232 172.27 547.382 170.678 547.548 168.93C547.62 168.767 547.698 168.569 547.784 168.338C547.87 168.107 547.97 167.897 548.082 167.707C547.892 167.594 547.512 167.458 546.94 167.298C546.368 167.138 545.625 166.94 544.712 166.706C543.728 166.635 542.394 166.612 540.71 166.639C540.26 166.576 539.928 166.379 539.715 166.047C539.235 165.3 539.306 164.727 539.928 164.327C540.011 164.273 540.162 164.235 540.382 164.211L544.77 164.47C546.436 164.689 547.703 165.018 548.572 165.457C548.699 165.199 548.813 164.921 548.914 164.621C548.988 164.28 549.036 163.898 549.056 163.474C549.291 162.561 549.451 161.579 549.537 160.526C549.665 159.447 549.739 158.286 549.76 157.041C549.799 156.371 549.963 155.942 550.254 155.756C550.918 155.329 551.596 155.655 552.29 156.734C552.53 157.108 552.62 157.431 552.561 157.703C551.992 159.008 551.394 161.18 550.768 164.221C550.753 164.29 550.743 164.502 550.737 164.857C550.746 165.145 550.691 165.561 550.572 166.107C550.884 166.317 551.276 166.563 551.75 166.845C552.24 167.058 552.816 167.362 553.48 167.757C554.064 168.026 554.621 168.255 555.152 168.441C555.724 168.602 556.262 168.754 556.766 168.9L559.015 169.389C559.22 169.434 559.402 169.58 559.562 169.829C559.749 170.12 559.79 170.504 559.686 170.981C559.624 171.431 559.448 171.75 559.157 171.937C558.95 172.07 558.744 172.115 558.539 172.07L553.662 170.366C553.214 170.126 552.664 169.864 552.012 169.579C551.375 169.226 550.636 168.851 549.794 168.454C549.666 168.712 549.518 169.394 549.349 170.499C549.153 171.563 548.969 172.737 548.797 174.021C548.625 175.304 548.469 176.43 548.33 177.4C548.232 178.342 548.21 178.855 548.263 178.938C548.177 179.169 548.03 179.352 547.823 179.485Z" fill="#EF4444"/>
<defs>
<clipPath id="clip0_4_39">
<rect width="525.563" height="580.297" fill="white"/>
</clipPath>
</defs>
</svg>
