<svg width="526" height="581" viewBox="0 0 526 581" fill="none" xmlns="http://www.w3.org/2000/svg">
<g clip-path="url(#clip0_3_2)">
<path d="M291.553 550.657C320.7 532.771 342.436 499.786 339.096 465.752C312.58 491.827 277.694 507.683 240.613 510.513C226.308 511.553 210.289 511.22 199.882 521.089C193.407 527.23 190.478 536.384 190.098 545.299C189.718 554.216 191.622 563.054 193.516 571.775L192.934 573.925C227.131 573.591 262.405 568.543 291.553 550.657Z" fill="#1ED760"/>
<path d="M338.379 465.725C326.954 491.623 307.659 513.263 283.234 527.571C278.031 530.744 272.36 533.077 266.43 534.485C260.609 535.669 254.578 535.273 248.962 533.338C243.689 531.639 238.492 529.291 232.898 528.903C230.032 528.747 227.165 529.199 224.486 530.228C221.806 531.258 219.374 532.842 217.35 534.878C212.175 539.818 209.083 546.324 206.28 552.79C203.169 559.971 200.05 567.478 193.969 572.693C193.232 573.325 194.256 574.432 194.991 573.801C205.572 564.727 207.117 549.749 215.529 539.117C219.454 534.156 224.898 530.348 231.427 530.358C237.136 530.367 242.497 532.784 247.821 534.551C253.272 536.519 259.122 537.122 264.86 536.308C270.842 535.207 276.594 533.096 281.868 530.065C293.85 523.432 304.716 514.955 314.065 504.946C324.799 493.583 333.51 480.466 339.821 466.165C340.211 465.28 338.767 464.846 338.379 465.725Z" fill="#138A3D"/>
<path d="M291.37 523.426C294.327 527.198 298.528 529.796 303.224 530.757C307.919 531.717 312.803 530.977 317.003 528.669C317.852 528.199 317.161 526.858 316.312 527.329C312.405 529.486 307.855 530.175 303.484 529.272C299.114 528.368 295.21 525.933 292.477 522.404C291.883 521.638 290.779 522.665 291.37 523.426Z" fill="#138A3D"/>
<path d="M251.521 534.552C252.613 524.815 257.333 515.848 264.743 509.438C265.477 508.803 264.454 507.697 263.72 508.33C256.022 515.016 251.129 524.357 250.015 534.492C249.91 535.458 251.417 535.513 251.521 534.552Z" fill="#138A3D"/>
<path d="M322.921 492.9C321.472 491.679 320.35 490.118 319.655 488.356C318.959 486.594 318.712 484.687 318.936 482.806C319.054 481.842 317.547 481.788 317.43 482.746C317.192 484.825 317.468 486.931 318.232 488.879C318.996 490.828 320.226 492.559 321.813 493.923C321.952 494.064 322.14 494.147 322.337 494.155C322.535 494.163 322.728 494.095 322.878 493.965C323.024 493.829 323.11 493.641 323.118 493.442C323.126 493.242 323.055 493.048 322.921 492.9Z" fill="#138A3D"/>
<path d="M191.837 574.818C191.762 574.876 191.688 574.934 191.613 574.991L190.907 573.229L190.883 573.168L190.833 573.128C190.782 573.086 190.733 573.044 190.68 572.997L190.68 572.997C190.642 572.963 190.602 572.928 190.559 572.892L167.555 522.288C167.967 521.327 168.437 520.392 168.961 519.488L168.963 519.485C171.519 514.957 175.13 510.93 179.125 507.141C181.805 504.598 184.649 502.172 187.46 499.773C188.842 498.594 190.216 497.421 191.558 496.245C197.451 491.083 202.942 485.48 207.985 479.484L207.985 479.484C220.642 464.406 230.39 447.11 236.733 428.473C236.938 427.876 237.137 427.267 237.325 426.663C239.875 418.901 241.79 410.945 243.052 402.873C243.125 402.44 243.191 402.011 243.257 401.584C243.519 401.875 243.777 402.166 244.037 402.463C258.7 419.189 264.586 441.87 263.253 464.394C262.583 475.691 260.14 486.813 256.013 497.352C254.408 501.429 252.597 505.422 250.588 509.316C246.895 516.416 242.628 523.203 237.829 529.609L237.829 529.609L237.824 529.616C237.573 529.978 237.307 530.327 237.041 530.676C236.981 530.756 236.92 530.836 236.859 530.916C226.132 545.071 213.077 557.65 199.193 568.975L199.142 569.016L199.138 569.027C197.326 570.497 195.506 571.952 193.68 573.392C193.623 573.433 193.569 573.477 193.519 573.516C193.467 573.557 193.418 573.595 193.366 573.631L193.352 573.641L193.34 573.652C193.319 573.671 193.287 573.697 193.248 573.728C193.134 573.808 193.015 573.902 192.903 573.99L192.883 574.006C192.882 574.007 192.882 574.008 192.881 574.008C192.785 574.08 192.691 574.155 192.601 574.227L192.6 574.228C192.507 574.301 192.417 574.373 192.326 574.441L192.325 574.442C192.164 574.564 192.001 574.69 191.84 574.816L191.837 574.818ZM199.118 569.078C199.116 569.085 199.117 569.081 199.119 569.076L199.118 569.078Z" fill="#1ED760" stroke="black" stroke-width="0.5"/>
<path d="M242.496 401.434C248.966 428.991 246.588 457.886 235.701 484.015C233.457 489.681 230.334 494.959 226.447 499.653C222.512 504.103 217.458 507.418 211.809 509.255C206.576 511.072 201.013 512.326 196.313 515.384C193.93 516.985 191.913 519.072 190.394 521.508C188.874 523.943 187.887 526.672 187.496 529.516C186.338 536.577 187.786 543.632 189.442 550.483C191.28 558.089 193.31 565.961 191.594 573.787C191.387 574.735 192.87 575.002 193.078 574.055C196.063 560.44 188.278 547.551 188.594 533.997C188.741 527.673 190.795 521.355 196.014 517.432C200.578 514.002 206.313 512.704 211.628 510.909C217.165 509.199 222.199 506.159 226.29 502.054C230.404 497.573 233.725 492.425 236.112 486.83C241.685 474.319 245.257 461.009 246.696 447.388C248.425 431.852 247.483 416.135 243.912 400.917C243.691 399.975 242.276 400.498 242.496 401.434Z" fill="#138A3D"/>
<path d="M239.702 475.808C244.334 477.039 249.252 476.584 253.58 474.524C257.907 472.464 261.361 468.932 263.325 464.56C263.719 463.674 262.361 463.02 261.966 463.907C260.145 467.981 256.927 471.271 252.894 473.181C248.86 475.091 244.277 475.497 239.97 474.325C239.034 474.071 238.771 475.555 239.702 475.808Z" fill="#138A3D"/>
<path d="M214.583 508.682C209.593 500.251 207.963 490.249 210.019 480.67C210.224 479.721 208.741 479.454 208.536 480.401C206.415 490.374 208.132 500.779 213.345 509.541C213.842 510.376 215.078 509.513 214.583 508.682Z" fill="#138A3D"/>
<path d="M246.514 432.439C244.623 432.336 242.787 431.765 241.171 430.776C239.554 429.788 238.209 428.414 237.255 426.778C236.769 425.937 235.533 426.801 236.017 427.637C237.079 429.44 238.567 430.955 240.35 432.051C242.133 433.147 244.157 433.789 246.246 433.922C246.442 433.951 246.641 433.904 246.804 433.792C246.967 433.679 247.08 433.508 247.122 433.315C247.156 433.118 247.112 432.916 246.998 432.752C246.884 432.588 246.711 432.475 246.514 432.439Z" fill="#138A3D"/>
<path d="M102.687 565.457L117.324 565.456L124.287 509L102.685 509.001L102.687 565.457Z" fill="#FFB6B6"/>
<path d="M98.9539 560.678L103.074 560.678L119.158 554.137L127.779 560.677H127.78C132.652 560.677 137.324 562.613 140.769 566.058C144.214 569.502 146.15 574.175 146.15 579.047V579.643L98.9547 579.645L98.9539 560.678Z" fill="#2F2E41"/>
<path d="M170.687 565.457L185.324 565.456L192.287 509L170.685 509.001L170.687 565.457Z" fill="#FFB6B6"/>
<path d="M166.954 560.678L171.074 560.678L187.158 554.137L195.779 560.677H195.78C200.652 560.677 205.324 562.613 208.769 566.058C212.214 569.502 214.15 574.175 214.15 579.047V579.643L166.955 579.645L166.954 560.678Z" fill="#2F2E41"/>
<path d="M91.0371 204.001L110.387 263.5L171.387 261.5L152.643 204.001H91.0371Z" fill="#E6E6E6"/>
<path d="M182.387 256.5L67.3872 259.5L69.3872 315.5C69.3872 315.5 67.3872 330.5 71.3872 334.5C75.3872 338.5 77.3872 338.5 75.3872 345.5C73.3872 352.5 83.9541 363.933 82.6707 365.217C81.3872 366.5 78.3872 373.5 78.3872 373.5L88.3872 430.5C88.3872 430.5 95.3872 529.5 97.3872 531.5C99.3872 533.5 101.387 531.5 99.3872 536.5C97.3872 541.5 95.3872 539.5 97.3872 541.5C99.1588 543.41 100.828 545.413 102.387 547.5H126.564C126.564 547.5 128.387 537.5 128.387 536.5C128.387 535.5 130.387 529.5 130.387 528.5C130.387 527.5 128.619 525.732 128.619 525.732C128.009 523.699 127.596 521.612 127.387 519.5C127.387 517.5 121.387 440.5 121.387 440.5L133.387 340.5L162.387 438.5C162.387 438.5 162.387 524.5 164.387 526.5C166.387 528.5 166.387 527.5 165.387 531.5C164.387 535.5 160.387 534.5 163.387 537.5C166.387 540.5 167.387 535.5 166.387 540.5L165.387 545.5L195.387 545.929C195.387 545.929 199.387 537.5 197.387 534.5C195.387 531.5 195.507 532.319 197.947 527.409C200.387 522.5 201.387 521.5 200.387 520.5C199.387 519.5 199.387 514.181 199.387 514.181L194.387 418.5C194.387 418.5 193.387 317.5 193.387 314.5C193.312 312.956 193.596 311.416 194.218 310.001V305.929L190.387 291.5L182.387 256.5Z" fill="#2F2E41"/>
<path d="M171.887 111L136.887 98L78.8873 102L65.4577 108.267C60.7342 110.471 56.8889 114.2 54.54 118.853C52.1911 123.507 51.4749 128.815 52.5066 133.924L69.8873 220L58.8873 305C58.8873 305 113.387 331.5 130.387 262.5L136.387 236.5C136.387 236.5 138.387 316.5 195.387 299.5C195.387 299.5 194.387 283.5 193.387 277.5C192.387 271.5 190.387 271.5 189.387 268.5C188.387 265.5 186.387 268.5 188.387 262.5C190.387 256.5 172.387 214.5 172.387 214.5L171.887 111Z" fill="#2F2E41"/>
<path d="M125.387 177.5L88.033 101.369L97.387 84.5H127.698L139.705 99.047L125.387 177.5Z" fill="#E6E6E6"/>
<path d="M106.748 260.35C105.119 260.444 103.488 260.18 101.971 259.575C100.455 258.971 99.0893 258.042 97.9709 256.852C96.8525 255.663 96.0084 254.243 95.4981 252.693C94.9878 251.142 94.8238 249.498 95.0175 247.877L59.3357 230.512L77.0768 220L108.241 238.102C110.943 238.608 113.365 240.087 115.048 242.26C116.732 244.432 117.561 247.147 117.377 249.889C117.193 252.632 116.009 255.211 114.05 257.139C112.091 259.067 109.493 260.21 106.748 260.35Z" fill="#FFB8B8"/>
<path d="M33.462 217.939C31.7598 215.861 29.7808 201.376 33.5118 197.977C36.6583 195.111 35.9718 193.778 33.9713 190.777C32.234 188.171 45.5704 140.055 53.2364 117.696C54.2583 114.723 56.37 112.247 59.1454 110.769C61.9209 109.292 65.1535 108.921 68.1912 109.733C71.2289 110.546 73.8456 112.479 75.5133 115.145C77.181 117.811 77.7757 121.01 77.1773 124.097C79.8834 152.722 76.0352 172.244 65.0694 185.464L98.9473 230.346L92.7305 253.142C92.7305 253.142 35.0132 219.833 33.462 217.939Z" fill="#2F2E41"/>
<path d="M112.887 74C130.008 74 143.887 60.1208 143.887 43C143.887 25.8792 130.008 12 112.887 12C95.7664 12 81.8872 25.8792 81.8872 43C81.8872 60.1208 95.7664 74 112.887 74Z" fill="#FFB8B8"/>
<path d="M145.715 20.5113C144.891 13.0973 134.182 5.68323 115.235 0.740536C96.2882 -4.20221 86.4028 17.2162 86.4028 17.2162C73.2222 23.8065 81.048 58.8174 85.167 55.5222C89.286 52.2271 92.993 57.5817 92.993 57.5817L96.0409 30.1499C100.38 33.4749 105.271 36.2901 110.52 35.4533L104.095 29.1275C110.184 31.7769 116.273 34.4264 122.362 37.0758C120.347 34.3021 118.331 31.5284 116.315 28.7548C116.523 28.7481 116.732 28.7389 116.941 28.731C119.678 31.0075 122.812 32.7599 126.185 33.9002C130.181 35.0455 134.968 34.4259 137.706 31.2982C138.443 30.4351 139 29.433 139.344 28.3511C144.315 31.756 145.303 39.0466 145.303 39.0466C145.303 39.0466 146.539 27.9254 145.715 20.5113Z" fill="#2F2E41"/>
<path d="M118.602 242.925C148.228 242.925 172.244 218.909 172.244 189.283C172.244 159.658 148.228 135.642 118.602 135.642C88.9767 135.642 64.9604 159.658 64.9604 189.283C64.9604 218.909 88.9767 242.925 118.602 242.925Z" fill="#EF4444"/>
<path d="M128.306 225.592C129.202 224.227 130.386 223.076 131.776 222.218C133.165 221.361 134.725 220.819 136.347 220.629C137.968 220.44 139.611 220.609 141.161 221.124C142.71 221.639 144.128 222.487 145.314 223.608L180.527 205.311L178.39 225.822L145.279 240.052C143.262 241.92 140.631 242.983 137.883 243.04C135.135 243.096 132.462 242.143 130.369 240.361C128.277 238.578 126.912 236.09 126.531 233.368C126.151 230.646 126.782 227.879 128.306 225.592Z" fill="#FFB8B8"/>
<path d="M150.044 239.142L143.827 216.346L174.705 186.464C163.739 173.244 159.891 153.722 162.597 125.097C161.998 122.009 162.592 118.81 164.26 116.144C165.927 113.477 168.544 111.543 171.583 110.731C174.621 109.918 177.854 110.289 180.629 111.767C183.405 113.246 185.517 115.722 186.538 118.696C194.204 141.055 202.908 168.577 200.834 172.724C200.559 173.275 200.308 173.768 200.083 174.21C198.226 177.862 198.226 177.862 200.034 180.211C200.259 180.504 200.511 180.831 200.787 181.2C201.487 182.133 202.242 183.011 202.971 183.859C205.321 186.591 207.541 189.171 205.803 191.777C203.803 194.778 203.116 196.111 206.263 198.977C209.994 202.376 208.015 216.861 206.312 218.939C204.761 220.832 159.585 235.961 150.545 238.974L150.044 239.142Z" fill="#2F2E41"/>
<path d="M517.063 88.8257H409.011C406.757 88.8231 404.597 87.9268 403.003 86.3333C401.41 84.7398 400.513 82.5792 400.511 80.3257V26.5459C400.513 24.2923 401.41 22.1318 403.003 20.5383C404.597 18.9448 406.757 18.0484 409.011 18.0459H517.063C519.317 18.0484 521.477 18.9448 523.071 20.5383C524.664 22.1318 525.56 24.2923 525.563 26.5459V80.3257C525.56 82.5792 524.664 84.7398 523.071 86.3333C521.477 87.9268 519.317 88.8231 517.063 88.8257Z" fill="#EF4444"/>
<path d="M499.312 116.997H426.523C424.383 116.995 422.331 116.143 420.818 114.629C419.306 113.114 418.456 111.062 418.456 108.921C418.456 106.781 419.306 104.728 420.818 103.214C422.331 101.7 424.383 100.848 426.523 100.846H499.312C500.373 100.845 501.424 101.053 502.405 101.458C503.386 101.863 504.277 102.458 505.028 103.208C505.779 103.958 506.374 104.849 506.781 105.829C507.187 106.809 507.396 107.86 507.396 108.921C507.396 109.983 507.187 111.034 506.781 112.014C506.374 112.994 505.779 113.885 505.028 114.635C504.277 115.385 503.386 115.98 502.405 116.385C501.424 116.79 500.373 116.998 499.312 116.997Z" fill="#292D3E"/>
<path d="M517.063 243.181H409.011C406.757 243.179 404.597 242.282 403.003 240.689C401.41 239.095 400.513 236.935 400.511 234.681V180.901C400.513 178.648 401.41 176.487 403.003 174.894C404.597 173.3 406.757 172.404 409.011 172.401H517.063C519.317 172.404 521.477 173.3 523.071 174.894C524.664 176.487 525.56 178.648 525.563 180.901V234.681C525.56 236.935 524.664 239.095 523.071 240.689C521.477 242.282 519.317 243.179 517.063 243.181Z" fill="#EF4444"/>
<path d="M499.312 269.497H426.523C424.381 269.497 422.327 268.646 420.813 267.132C419.298 265.617 418.447 263.563 418.447 261.422C418.447 259.28 419.298 257.226 420.813 255.711C422.327 254.197 424.381 253.346 426.523 253.346H499.312C501.453 253.346 503.507 254.197 505.022 255.711C506.536 257.226 507.387 259.28 507.387 261.422C507.387 263.563 506.536 265.617 505.022 267.132C503.507 268.646 501.453 269.497 499.312 269.497Z" fill="#292D3E"/>
<path d="M517.063 396.537H409.011C406.757 396.535 404.597 395.638 403.003 394.045C401.41 392.451 400.513 390.291 400.511 388.037V334.257C400.513 332.004 401.41 329.843 403.003 328.25C404.597 326.656 406.757 325.76 409.011 325.757H517.063C519.317 325.76 521.477 326.656 523.071 328.25C524.664 329.843 525.56 332.004 525.563 334.257V388.037C525.56 390.291 524.664 392.451 523.071 394.045C521.477 395.638 519.317 396.535 517.063 396.537Z" fill="#EF4444"/>
<path d="M499.312 422.997H426.523C424.383 422.995 422.331 422.143 420.818 420.629C419.306 419.114 418.456 417.062 418.456 414.921C418.456 412.781 419.306 410.728 420.818 409.214C422.331 407.7 424.383 406.848 426.523 406.846H499.312C500.373 406.844 501.424 407.053 502.405 407.458C503.386 407.863 504.277 408.458 505.028 409.208C505.779 409.958 506.374 410.849 506.781 411.829C507.187 412.809 507.396 413.86 507.396 414.921C507.396 415.983 507.187 417.034 506.781 418.014C506.374 418.994 505.779 419.885 505.028 420.635C504.277 421.385 503.386 421.98 502.405 422.385C501.424 422.79 500.373 422.998 499.312 422.997Z" fill="#292D3E"/>
<path d="M112.286 214.379C111.526 214.376 110.779 214.182 110.115 213.813C109.404 213.43 108.811 212.86 108.4 212.165C107.989 211.47 107.775 210.677 107.782 209.869V172.696C107.782 171.889 107.998 171.098 108.408 170.404C108.819 169.711 109.408 169.14 110.114 168.752C110.821 168.364 111.619 168.172 112.424 168.198C113.23 168.223 114.014 168.465 114.694 168.897L149.957 187.484C150.597 187.89 151.123 188.452 151.488 189.116C151.853 189.78 152.044 190.525 152.044 191.282C152.044 192.04 151.853 192.785 151.488 193.449C151.123 194.113 150.597 194.675 149.957 195.081L114.694 213.668C113.976 214.13 113.14 214.376 112.286 214.379Z" fill="white"/>
<path d="M451.681 71.9301C451.067 71.9283 450.464 71.7712 449.928 71.4735C449.354 71.1641 448.876 70.7041 448.544 70.1431C448.212 69.5821 448.039 68.9412 448.044 68.2893V38.2755C448.044 37.6247 448.219 36.9859 448.55 36.4257C448.882 35.8656 449.357 35.4047 449.928 35.0913C450.498 34.7779 451.142 34.6235 451.793 34.6441C452.443 34.6648 453.076 34.8598 453.625 35.2088L482.097 50.2157C482.613 50.5437 483.038 50.9967 483.333 51.5328C483.627 52.0689 483.782 52.6707 483.782 53.2824C483.782 53.8941 483.627 54.4959 483.333 55.032C483.038 55.5681 482.613 56.0211 482.097 56.3491L453.625 71.356C453.045 71.7289 452.37 71.9281 451.681 71.9301Z" fill="white"/>
<path d="M451.418 226.93C450.805 226.928 450.202 226.771 449.665 226.474C449.092 226.164 448.613 225.704 448.281 225.143C447.949 224.582 447.777 223.941 447.782 223.289V193.276C447.782 192.625 447.956 191.986 448.288 191.426C448.619 190.866 449.095 190.405 449.665 190.091C450.235 189.778 450.88 189.624 451.53 189.644C452.18 189.665 452.813 189.86 453.363 190.209L481.834 205.216C482.35 205.544 482.775 205.997 483.07 206.533C483.364 207.069 483.519 207.671 483.519 208.282C483.519 208.894 483.364 209.496 483.07 210.032C482.775 210.568 482.35 211.021 481.834 211.349L453.363 226.356C452.783 226.729 452.108 226.928 451.418 226.93Z" fill="white"/>
<path d="M451.155 381.93C450.542 381.928 449.939 381.771 449.403 381.474C448.829 381.164 448.35 380.704 448.018 380.143C447.687 379.582 447.514 378.941 447.519 378.289V348.276C447.519 347.625 447.694 346.986 448.025 346.426C448.356 345.866 448.832 345.405 449.402 345.091C449.973 344.778 450.617 344.624 451.267 344.644C451.918 344.665 452.551 344.86 453.1 345.209L481.571 360.216C482.088 360.544 482.513 360.997 482.807 361.533C483.102 362.069 483.256 362.671 483.256 363.282C483.256 363.894 483.102 364.496 482.807 365.032C482.513 365.568 482.088 366.021 481.571 366.349L453.1 381.356C452.52 381.729 451.845 381.928 451.155 381.93Z" fill="white"/>
</g>
<defs>
<clipPath id="clip0_3_2">
<rect width="525.563" height="580.297" fill="white"/>
</clipPath>
</defs>
</svg>
